<svg width="360" height="640" viewBox="0 0 360 640" fill="none" xmlns="http://www.w3.org/2000/svg">
<g clip-path="url(#clip0_2_53)">
<rect width="360" height="640" fill="#423B32"/>
<path d="M333.956 525.463C323.8 524.208 316.171 515.677 316.139 505.549C316.139 505.549 295.188 495.195 300.259 441.399C305.329 387.603 285.252 361.152 285.252 361.152C261.448 327.875 245.778 289.582 239.477 249.291C230.997 245.715 211.132 259.918 211.132 259.918C174.963 276.964 157.736 251.745 152.61 241.866C155.476 243.899 163.137 243.3 183.868 227.227C218.038 200.676 239.681 214.941 239.681 214.941C260.687 182.608 253.672 176.765 277.371 142.773C301.069 108.782 374.961 137.266 375 137.266V526L333.956 525.463ZM329.516 316.62C329.634 316.184 339.05 281.608 336.554 273.341C336.554 273.341 328.051 302.37 325.43 299.316C325.43 299.316 268.632 285.752 262.971 277.572C262.971 277.572 276.623 310.847 295.464 315.926C302.148 314.47 308.959 313.659 315.8 313.511C320.587 313.13 325.375 314.215 329.516 316.62ZM150.807 238.173C151.308 239.457 151.889 240.709 152.547 241.921C151.987 241.469 151.539 240.897 151.237 240.247C150.936 239.598 150.789 238.888 150.807 238.173ZM131.124 171.787C66.4528 122.587 105.93 47 105.93 47C111.701 84.9261 123.038 111.47 153.595 130.488C186.513 150.938 259.727 148.749 259.727 148.749L239.421 193.625C231.601 194.764 223.707 195.337 215.801 195.339C185.922 195.339 156.618 187.174 131.124 171.756V171.787Z" fill="white" fill-opacity="0.09"/>
</g>
<defs>
<clipPath id="clip0_2_53">
<rect width="360" height="640" fill="white"/>
</clipPath>
</defs>
</svg>
